<?xml version="1.0" encoding="utf-8"?>
<svg viewBox="2.8364 50.9101 494.2484 295.438" width="494.248" height="295.438" xmlns="http://www.w3.org/2000/svg">
  <g transform="matrix(0.08074800670146942, 0, 0, -0.08074800670146942, -4.818694114685059, 358.5562744140625)" fill="#000000" stroke="none" style="">
    <path d="M3005 3799 c-11 -6 -72 -64 -135 -129 -136 -138 -191 -169 -391 -221&#10;-68 -17 -134 -35 -146 -40 -24 -9 -57 14 -181 124 l-65 58 -61 -7 c-33 -3 -79&#10;-14 -102 -24 -40 -17 -41 -17 -70 6 -37 30 -126 34 -164 7 -18 -13 -40 -17&#10;-81 -15 -73 5 -152 -27 -169 -67 -10 -26 -13 -27 -90 -26 -77 0 -80 -1 -114&#10;-35 -60 -58 -108 -174 -131 -317 -8 -48 8 -41 -205 -99 -175 -47 -223 -47&#10;-355 1 -119 44 -187 44 -271 2 -64 -33 -154 -103 -154 -122 0 -19 35 -28 77&#10;-20 58 11 144 -5 170 -31 18 -19 23 -34 23 -78 0 -47 -4 -61 -29 -88 l-29 -33&#10;-113 -2 c-61 -1 -117 -7 -122 -12 -18 -18 78 -99 162 -140 87 -41 162 -47 219&#10;-17 18 9 81 64 139 121 126 123 179 154 336 195 64 16 118 30 120 30 2 0 7&#10;-32 11 -71 8 -94 36 -155 97 -215 l49 -48 0 -96 c0 -53 -7 -143 -15 -201 -13&#10;-98 -60 -379 -70 -425 -3 -15 -18 -25 -49 -34 -24 -7 -59 -25 -78 -40 -32 -27&#10;-33 -30 -32 -101 1 -51 10 -97 28 -148 21 -61 26 -92 26 -172 0 -69 6 -116 20&#10;-161 17 -54 20 -92 20 -270 l0 -207 -55 -12 c-65 -14 -75 -34 -13 -26 30 4 38&#10;3 27 -4 -10 -8 -7 -9 14 -6 48 8 29 -12 -30 -30 -48 -15 -53 -18 -31 -21 16&#10;-2 63 3 105 12 43 8 116 17 163 21 47 3 110 13 140 20 76 19 351 67 356 62 2&#10;-2 -101 -25 -228 -52 -128 -26 -255 -54 -283 -61 l-50 -14 55 6 c41 4 51 2 40&#10;-6 -19 -14 70 -4 190 21 79 16 101 17 88 4 -3 -3 -75 -20 -161 -37 -86 -18&#10;-155 -34 -153 -36 4 -3 108 13 151 24 18 5 18 4 4 -8 -14 -12 -8 -13 42 -11&#10;34 1 69 9 82 18 26 18 62 21 51 3 -5 -8 1 -9 22 -5 16 3 61 13 99 21 39 9 84&#10;16 101 16 17 0 44 4 60 9 39 13 153 22 134 11 -23 -13 -197 -48 -275 -56 -38&#10;-4 -72 -10 -75 -14 -3 -4 -52 -15 -110 -24 -58 -10 -109 -22 -114 -27 -6 -6&#10;-3 -9 7 -9 16 0 255 44 385 71 30 6 70 8 90 5 29 -5 34 -4 22 4 -12 9 -8 11&#10;17 6 17 -3 95 8 175 24 78 17 159 30 179 30 20 0 52 6 70 14 19 7 63 16 99 19&#10;l65 5 -55 -19 c-64 -22 -34 -21 90 5 79 17 122 34 115 46 -3 4 9 10 26 12 29&#10;5 45 -3 32 -16 -3 -3 -17 -6 -29 -6 -13 0 -26 -5 -30 -11 -8 -13 83 -3 101 11&#10;6 4 44 13 85 20 132 21 285 57 255 60 -17 1 -16 3 5 9 44 14 118 21 95 10 -18&#10;-8 -17 -9 5 -5 154 26 371 71 355 74 -16 4 -13 7 15 18 30 11 31 13 11 13 -13&#10;1 -21 4 -17 8 4 5 44 9 89 10 45 1 123 8 172 17 50 9 95 16 100 17 6 0 1 4&#10;-10 9 -19 8 -19 8 5 18 44 19 -1 13 -272 -33 -253 -42 -534 -97 -778 -150 -97&#10;-21 -258 -51 -385 -70 -26 -4 -27 -4 -8 4 16 8 749 155 873 176 14 2 129 24&#10;255 49 127 25 300 57 385 71 85 13 196 33 245 44 218 47 288 61 420 85 77 14&#10;191 33 254 41 62 9 118 18 125 21 6 2 61 13 121 23 61 11 128 27 149 36 22 9&#10;103 25 180 36 191 25 287 44 322 62 26 14 27 16 11 23 -15 5 -16 9 -5 15 7 5&#10;23 9 34 9 27 0 40 27 16 33 -12 3 -7 8 18 20 l35 16 -33 1 c-20 0 -31 4 -27&#10;10 3 5 19 10 36 10 27 0 43 19 17 21 -7 0 -2 5 12 10 14 6 28 17 33 25 4 8 15&#10;14 23 14 11 0 14 9 12 33 -3 32 -3 32 -68 37 -97 7 -119 31 -43 45 21 3 53 15&#10;71 26 18 10 45 20 60 20 33 2 -128 18 -218 22 -69 3 -218 -15 -310 -38 -30 -7&#10;-84 -16 -120 -20 -104 -10 -609 -98 -895 -156 -55 -11 -136 -26 -180 -33 -44&#10;-8 -154 -30 -245 -50 -186 -40 -264 -56 -610 -125 -325 -65 -916 -190 -1168&#10;-247 -112 -26 -205 -44 -208 -41 -3 2 -7 43 -11 90 l-6 85 47 20 c25 12 49 27&#10;52 35 3 8 -2 79 -10 158 -15 139 -13 188 10 281 5 23 1 33 -26 58 -18 17 -59&#10;43 -90 57 l-58 27 -5 64 c-4 35 -4 188 0 340 l6 277 39 76 c28 53 67 104 135&#10;175 141 146 149 161 173 301 26 148 26 150 53 156 12 2 85 21 162 42 173 45&#10;216 44 400 -15 157 -51 224 -51 320 -5 63 31 165 123 165 149 0 24 -12 26&#10;-148 29 -118 2 -124 3 -142 27 -29 39 -45 106 -34 148 14 58 53 72 196 72 68&#10;0 119 4 123 10 24 38 -65 104 -204 150 -93 31 -188 39 -226 19z m223 -39 c114&#10;-40 147 -60 147 -91 0 -24 -2 -24 -106 -30 -88 -5 -112 -10 -138 -28 -41 -29&#10;-49 -74 -26 -157 24 -87 40 -98 170 -104 92 -5 100 -7 103 -26 7 -52 -147&#10;-144 -242 -144 -66 0 -138 60 -204 169 l-20 33 3 -35 c6 -62 -7 -68 -146 -78&#10;-112 -7 -165 -18 -374 -74 -19 -6 -20 -1 -20 72 l1 77 39 9 c131 28 234 74&#10;308 136 61 51 108 61 147 33 l27 -21 7 53 c7 65 40 163 64 189 48 54 138 60&#10;260 17z m-1384 -213 c27 -22 28 -26 18 -55 -6 -17 -14 -62 -17 -99 -6 -61 -4&#10;-76 20 -133 50 -120 19 -220 -70 -220 -41 0 -62 24 -101 117 -26 62 -29 78&#10;-29 188 1 136 14 197 47 213 41 19 100 14 132 -11z m150 -4 c-5 -10 -9 -43 -8&#10;-74 0 -44 8 -73 38 -134 50 -103 54 -166 12 -202 -34 -29 -102 -29 -120 -1&#10;-15 24 0 34 20 14 19 -19 68 -14 95 11 31 26 -10 133 -51 133 -42 0 -76 -25&#10;-71 -52 3 -18 -10 -6 -26 25 -22 42 -22 177 1 230 15 37 58 66 100 67 14 0 16&#10;-4 10 -17z m140 -34 c61 -55 68 -69 35 -69 -22 0 -109 85 -109 108 0 22 17 13&#10;74 -39z m-505 30 c32 -11 32 -12 24 -53 -4 -22 -8 -93 -8 -156 1 -107 3 -120&#10;34 -193 32 -75 32 -78 16 -103 -9 -14 -33 -32 -53 -41 -32 -13 -39 -13 -68 1&#10;-27 12 -35 25 -48 68 -8 29 -20 71 -26 93 -6 22 -22 78 -36 124 -30 98 -32&#10;146 -11 187 21 41 40 55 95 70 26 7 47 13 48 13 1 1 15 -4 33 -10z m465 -71&#10;c46 -48 71 -57 106 -38 15 8 30 1 79 -40 85 -71 85 -70 37 -344 -29 -162 -34&#10;-170 -165 -306 -68 -71 -101 -114 -129 -170 -39 -80 -49 -93 -70 -85 -22 8&#10;-68 16 -52 9 8 -4 28 -16 44 -27 l29 -21 -6 -266 c-6 -237 1 -425 19 -511 4&#10;-21 1 -28 -17 -32 -34 -9 -329 -41 -334 -36 -2 3 -7 45 -11 94 -17 235 -23&#10;254 -20 77 1 -148 -1 -173 -14 -177 -31 -10 -286 -7 -326 4 -23 6 -56 21 -75&#10;34 -41 27 -41 14 6 292 43 253 54 341 56 437 2 72 4 78 33 106 17 16 42 36 56&#10;45 13 10 20 17 14 17 -5 0 -25 -11 -44 -25 -49 -36 -59 -31 -19 11 l34 36 -41&#10;-20 -41 -21 -32 23 c-62 46 -101 115 -101 179 0 39 5 49 39 80 66 59 165 98&#10;397 153 138 33 174 38 174 27 0 -5 -20 -28 -44 -52 -47 -46 -89 -121 -84 -149&#10;2 -11 14 1 35 39 17 30 55 77 84 103 56 50 219 134 301 156 45 12 49 11 68&#10;-11 l20 -24 -12 34 c-10 30 -7 40 23 97 28 53 37 63 54 57 17 -5 18 -4 7 10&#10;-8 9 -35 30 -61 46 -32 21 -55 46 -70 76 -28 56 -38 143 -21 175 12 23 13 23&#10;20 5 5 -11 29 -41 54 -67z m-701 -27 c19 -7 23 -15 20 -33 -4 -20 12 -87 63&#10;-271 17 -63 4 -102 -40 -117 -70 -23 -108 16 -157 161 -32 97 -39 150 -24 184&#10;8 20 8 20 -13 1 -27 -24 -28 -60 -2 -133 25 -72 25 -88 -1 -112 -19 -18 -105&#10;-48 -113 -40 -2 2 4 44 15 94 18 84 60 188 92 227 34 42 106 59 160 39z m611&#10;-193 c25 -36 21 -77 -10 -88 -32 -13 -30 -13 -48 6 -19 19 -21 90 -3 97 26 11&#10;47 6 61 -15z m-710 -186 c4 -10 19 -31 35 -46 37 -35 109 -39 151 -8 l27 21&#10;22 -29 21 -30 -27 -6 c-16 -3 -48 -12 -73 -19 -25 -8 -126 -35 -225 -60 -99&#10;-26 -252 -67 -340 -91 -162 -45 -266 -57 -281 -32 -4 7 -16 -25 -26 -72 -34&#10;-161 -83 -214 -194 -214 -88 0 -244 94 -220 133 4 6 37 11 77 11 81 0 138 24&#10;157 65 7 14 15 50 18 79 6 49 4 56 -22 85 -27 30 -34 33 -118 39 -49 4 -91 12&#10;-93 18 -7 21 41 67 96 92 42 18 74 25 126 26 83 1 123 -21 152 -84 17 -37 33&#10;-52 33 -31 0 13 49 29 110 36 53 6 232 46 465 105 61 16 113 29 117 29 4 1 9&#10;-7 12 -17z m844 -1390 c16 -24 15 -26 -23 -59 -45 -38 -115 -77 -190 -104 -40&#10;-15 -43 -18 -15 -13 43 8 123 40 172 71 21 13 40 23 43 23 8 0 -4 -89 -17&#10;-122 -8 -21 -7 -31 5 -43 9 -8 18 -41 22 -72 3 -32 8 -77 11 -101 l5 -43 -74&#10;-34 c-133 -62 -333 -105 -486 -105 -85 0 -88 5 -11 20 79 15 183 47 205 64 16&#10;12 1 10 -70 -5 -190 -43 -306 -60 -456 -66 -156 -6 -157 -6 -169 17 -17 32&#10;-37 223 -24 227 6 2 -4 45 -24 105 -19 55 -36 124 -39 152 -5 50 -4 53 36 89&#10;23 20 47 37 55 37 8 0 22 3 31 6 14 6 15 2 10 -28 -6 -32 -3 -38 27 -60 66&#10;-49 113 -60 253 -60 72 0 200 7 285 16 85 9 177 19 204 21 92 10 166 31 166&#10;48 0 7 -16 23 -35 36 -24 16 -35 31 -35 48 l0 24 61 -32 c34 -18 68 -44 77&#10;-57z m3597 -122 c0 -11 -9 -14 -31 -12 -20 2 -38 -4 -50 -15 -17 -17 -16 -18&#10;22 -23 51 -7 64 -16 64 -46 0 -37 -33 -64 -80 -64 -22 0 -40 2 -40 4 0 2 -3&#10;11 -6 20 -5 12 2 15 37 13 34 -2 44 2 47 16 3 13 -3 17 -27 17 -66 0 -83 78&#10;-21 103 29 11 85 3 85 -13z m-190 -30 c0 -9 -14 -17 -38 -21 -20 -3 -40 -9&#10;-43 -12 -12 -12 12 -32 39 -32 37 0 38 -19 1 -25 -20 -4 -30 -12 -32 -27 -3&#10;-20 0 -21 39 -16 33 5 41 3 37 -8 -5 -15 -38 -27 -83 -28 l-30 -1 0 82 0 81&#10;35 12 c46 16 75 14 75 -5z m-177 -68 c2 -11 -4 -33 -14 -47 -13 -20 -14 -29&#10;-5 -38 6 -6 11 -17 11 -24 0 -20 -27 -15 -44 8 -19 28 -50 21 -54 -13 -2 -14&#10;-10 -29 -18 -32 -11 -4 -14 10 -14 84 l0 89 38 6 c20 4 42 8 47 10 17 5 50&#10;-21 53 -43z m-208 -2 c0 -13 -34 -30 -59 -30 -14 0 -21 -6 -21 -20 0 -16 7&#10;-20 36 -20 45 0 42 -24 -4 -28 -25 -3 -32 -8 -32 -24 0 -18 4 -20 39 -14 43 6&#10;63 -7 34 -22 -10 -5 -37 -12 -60 -16 l-43 -6 -1 35 c0 19 -1 53 -1 75 0 22 1&#10;46 1 54 1 20 111 36 111 16z m-250 -105 l0 -65 35 0 c19 0 35 -5 35 -10 0 -14&#10;-44 -30 -81 -30 l-29 0 0 78 c0 80 3 92 27 92 9 0 13 -17 13 -65z m-179 8 c1&#10;-16 1 -47 1 -71 l1 -43 38 6 c31 5 39 4 39 -8 0 -15 -86 -41 -102 -31 -10 6&#10;-11 158 -1 167 14 14 23 6 24 -20z m-121 -84 c28 -57 32 -72 21 -79 -10 -5&#10;-20 -1 -31 12 -25 31 -79 18 -103 -24 -13 -22 -21 -28 -29 -20 -8 8 -2 30 21&#10;79 43 90 58 113 74 107 8 -3 29 -36 47 -75z m1190 57 c0 -2 -11 -6 -25 -8 -13&#10;-3 -22 -1 -19 3 5 9 44 13 44 5z m-1370 -20 c0 -8 -9 -18 -20 -21 -17 -6 -20&#10;-15 -20 -76 0 -39 -4 -69 -10 -69 -5 0 -13 0 -17 0 -5 0 -7 13 -6 28 1 15 0&#10;44 -3 65 -4 28 -10 37 -25 37 -40 0 -19 28 29 38 67 14 72 14 72 -2z m-285&#10;-55 c7 -12 -10 -22 -49 -30 -18 -4 -32 -14 -34 -24 -3 -14 4 -17 33 -17 44 0&#10;44 -22 -1 -30 -20 -4 -30 -12 -32 -27 -3 -20 0 -21 34 -13 38 9 54 6 54 -10 0&#10;-10 -18 -16 -77 -25 l-43 -7 0 86 c0 85 0 86 28 92 15 3 32 7 37 9 20 7 44 5&#10;50 -4z m-195 -56 c17 -21 15 -92 -4 -120 -17 -26 -85 -51 -110 -42 -13 5 -16&#10;22 -16 80 0 43 5 78 12 85 17 17 103 15 118 -3z m-300 -115 c0 -107 -12 -116&#10;-63 -44 l-32 46 -3 -49 c-3 -52 -17 -77 -31 -55 -7 11 -7 41 -1 155 0 4 8 7&#10;18 7 9 0 32 -21 50 -47 l32 -47 0 56 c0 50 4 60 28 67 1 1 2 -39 2 -89z m990&#10;71 c-26 -15 -80 -23 -80 -12 0 8 24 14 80 19 13 1 13 0 0 -7z m-1206 -63 c45&#10;-64 -15 -158 -101 -158 -68 0 -86 83 -32 145 27 30 37 35 74 35 34 0 47 -5 59&#10;-22z m-234 -103 c0 -66 -3 -85 -14 -85 -10 0 -15 16 -18 53 -5 78 1 117 18&#10;117 11 0 14 -18 14 -85z m-111 52 c15 -19 4 -27 -39 -27 -45 0 -73 -27 -68&#10;-66 5 -42 31 -52 73 -30 40 22 52 17 36 -13 -17 -30 -86 -47 -116 -27 -49 32&#10;-38 122 19 157 36 22 79 25 95 6z m816 -33 c-27 -8 -63 -13 -80 -11 -27 2 -26&#10;4 15 14 25 6 61 11 80 11 33 0 32 -1 -15 -14z m-1054 -60 c36 -64 46 -104 26&#10;-104 -8 0 -21 9 -28 20 -20 28 -79 14 -97 -23 -13 -27 -26 -34 -36 -19 -5 9&#10;53 142 74 166 19 24 30 16 61 -40z m915 37 c-3 -5 -30 -12 -60 -15 -29 -4 -77&#10;-13 -106 -21 -29 -8 -49 -10 -44 -5 5 5 45 15 89 24 82 16 118 23 123 25 2 0&#10;1 -3 -2 -8z m-1121 -41 c0 -11 -13 -16 -43 -18 -50 -4 -78 -36 -68 -76 9 -35&#10;40 -41 80 -16 42 25 54 12 21 -24 -31 -33 -93 -36 -120 -6 -36 40 -10 130 43&#10;152 30 12 87 4 87 -12z m815 -20 c-20 -13 -33 -13 -25 0 3 6 14 10 23 10 15 0&#10;15 -2 2 -10z m-1030 -85 c0 -65 -3 -85 -14 -85 -14 0 -26 48 -26 107 0 41 9&#10;63 26 63 11 0 14 -19 14 -85z m-173 -6 c0 -30 1 -59 2 -66 1 -8 13 -10 36 -6&#10;27 4 35 2 35 -9 0 -15 -87 -41 -102 -32 -10 6 -11 158 -1 168 17 16 28 -5 30&#10;-55z m1042 57 c-10 -9 -79 -14 -74 -5 4 5 22 9 42 9 20 0 34 -2 32 -4z m554&#10;-16 c-29 -12 -130 -25 -122 -16 7 8 84 24 119 24 25 1 25 1 3 -8z m-1699 -43&#10;c15 -41 -9 -78 -61 -97 -29 -9 -43 -21 -45 -35 -2 -11 -9 -20 -17 -20 -10 0&#10;-14 17 -16 65 -4 103 9 120 95 116 28 -1 36 -6 44 -29z m751 -16 c-25 -10&#10;-120 -23 -113 -16 6 7 85 23 113 23 l20 1 -20 -8z m-983 -65 c20 -42 29 -70&#10;24 -82 -7 -18 -9 -18 -27 5 -16 19 -25 22 -54 17 -24 -5 -39 -15 -47 -31 -6&#10;-13 -17 -26 -24 -29 -24 -9 -16 30 23 109 48 96 62 97 105 11z m1561 37 c-7&#10;-2 -19 -2 -25 0 -7 3 -2 5 12 5 14 0 19 -2 13 -5z m-883 -32 c-44 -14 -104&#10;-21 -94 -11 10 10 46 17 89 18 29 0 29 0 5 -7z m300 -91 c-8 -5 -26 -9 -40 -9&#10;l-25 1 25 8 c14 4 32 8 40 9 13 1 13 0 0 -9z m-560 -50 c-8 -5 -24 -10 -35&#10;-10 -17 0 -17 2 -5 10 8 5 24 10 35 10 17 0 17 -2 5 -10z m-85 -9 c-12 -11&#10;-103 -26 -93 -16 4 5 25 11 45 15 56 11 58 11 48 1z m-302 -28 c-7 -2 -21 -2&#10;-30 0 -10 3 -4 5 12 5 17 0 24 -2 18 -5z" style="fill: rgb(74, 125, 190); paint-order: fill;"/>
    <path d="M1745 3218 c-11 -6 -23 -16 -27 -22 -16 -23 21 -126 45 -126 32 0 88&#10;23 97 40 12 22 -2 62 -34 98 -21 24 -50 28 -81 10z m73 -29 c7 -11 17 -32 22&#10;-45 9 -23 7 -26 -25 -40 -46 -19 -54 -18 -64 9 -22 59 -21 74 2 85 34 16 51&#10;14 65 -9z" style="fill: rgb(74, 125, 190);"/>
    <path d="M1557 3154 c-26 -14 -28 -19 -22 -52 4 -20 13 -49 22 -65 13 -27 18&#10;-29 55 -24 82 11 99 68 38 128 -32 33 -52 35 -93 13z m96 -48 c22 -45 13 -61&#10;-40 -72 -34 -7 -45 5 -56 62 -5 26 -2 33 16 42 38 19 61 10 80 -32z" style="fill: rgb(74, 125, 190);"/>
    <path d="M1556 2643 c-2 -10 -7 -38 -10 -63 -6 -52 7 -18 17 43 6 38 2 50 -7&#10;20z"/>
    <path d="M1452 2165 c0 -16 2 -22 5 -12 2 9 2 23 0 30 -3 6 -5 -1 -5 -18z"/>
    <path d="M1431 2006 c-7 -59 -10 -110 -8 -113 7 -6 30 193 25 209 -3 7 -10&#10;-36 -17 -96z"/>
    <path d="M1412 1840 c0 -14 2 -19 5 -12 2 6 2 18 0 25 -3 6 -5 1 -5 -13z"/>
    <path d="M1353 3165 c-17 -12 -20 -20 -14 -48 13 -53 30 -77 56 -77 37 0 75&#10;21 75 42 0 22 -28 80 -44 90 -18 12 -50 9 -73 -7z m80 -42 c14 -35 14 -39 -1&#10;-50 -36 -29 -72 -4 -72 50 0 29 7 37 36 37 16 0 26 -10 37 -37z" style="fill: rgb(74, 125, 190);"/>
    <path d="M1838 1483 c7 -3 16 -2 19 1 4 3 -2 6 -13 5 -11 0 -14 -3 -6 -6z"/>
    <path d="M5273 1453 c-7 -2 -13 -16 -13 -30 0 -22 3 -24 28 -19 29 8 55 34 46&#10;47 -6 10 -41 11 -61 2z" style="fill: rgb(74, 125, 190);"/>
    <path d="M4540 1275 c-16 -30 -11 -38 18 -28 18 7 19 11 8 31 l-12 23 -14 -26z" style="fill: rgb(74, 125, 190);"/>
    <path d="M3860 1136 c0 -25 0 -49 1 -53 0 -13 52 -5 61 9 4 7 7 29 6 48 -3 32&#10;-6 35 -35 38 -33 3 -33 3 -33 -42z" style="fill: rgb(74, 125, 190);"/>
    <path d="M3342 1074 c-20 -9 -44 -63 -37 -84 9 -29 43 -35 74 -12 20 15 26 28&#10;26 58 0 34 -3 39 -25 41 -14 1 -31 -1 -38 -3z" style="fill: rgb(74, 125, 190);"/>
    <path d="M2791 932 c-16 -29 -14 -32 14 -32 28 0 31 8 11 35 -13 18 -14 18&#10;-25 -3z" style="fill: rgb(74, 125, 190);"/>
    <path d="M2068 823 c-26 -7 -25 -63 1 -63 37 0 51 12 51 41 0 29 -9 33 -52 22z" style="fill: rgb(74, 125, 190);"/>
    <path d="M1851 739 c-11 -30 -11 -30 23 -21 l28 8 -21 18 c-20 18 -21 18 -30&#10;-5z" style="fill: rgb(74, 125, 190);"/>
    <path d="M6054 3568 c-17 -4 -37 -15 -44 -23 -7 -8 -27 -15 -44 -15 -137 -1&#10;-292 -202 -362 -468 -30 -119 -33 -236 -5 -290 25 -49 46 -67 105 -86 90 -30&#10;195 5 283 96 135 139 254 476 224 635 -13 64 -33 114 -53 131 -25 21 -70 29&#10;-104 20z m-77 -330 c-11 -147 -73 -330 -140 -412 l-24 -29 -21 21 c-28 28 -28&#10;61 -1 148 28 92 166 354 187 354 3 0 2 -37 -1 -82z" style="fill: rgb(255, 255, 255);"/>
    <path d="M5386 3425 c-44 -19 -96 -47 -115 -63 -93 -73 -297 -599 -289 -742 3&#10;-48 6 -54 31 -63 15 -5 43 -6 62 -3 39 8 95 50 95 73 0 8 12 54 26 101 30 98&#10;30 98 85 -10 16 -31 33 -60 39 -63 6 -4 40 -8 76 -10 51 -2 69 1 89 17 46 36&#10;32 79 -59 188 -25 30 -46 58 -46 61 0 3 12 12 26 20 41 22 126 120 157 181 54&#10;107 71 216 43 282 -31 75 -98 85 -220 31z m46 -175 c-4 -53 -37 -115 -76 -145&#10;-20 -15 -39 -25 -43 -21 -3 3 6 39 22 78 42 110 104 166 97 88z" style="fill: rgb(255, 255, 255);"/>
    <path d="M4825 3331 c-22 -11 -71 -48 -108 -82 -61 -55 -75 -75 -132 -193 -65&#10;-133 -128 -307 -180 -494 l-28 -102 23 -25 c18 -20 33 -25 69 -25 95 1 161 70&#10;175 184 3 28 11 68 16 88 10 35 12 36 35 26 42 -19 109 -1 174 47 103 76 160&#10;203 168 375 6 115 -1 143 -51 189 -36 34 -108 39 -161 12z m3 -300 c-5 -69&#10;-40 -144 -79 -172 -17 -12 -32 -19 -35 -17 -4 4 89 249 104 272 10 17 15 -20&#10;10 -83z" style="fill: rgb(255, 255, 255);"/>
    <path d="M4250 3198 c-19 -11 -49 -22 -67 -24 -139 -13 -303 -246 -357 -506&#10;-38 -184 -8 -291 94 -335 48 -20 143 -12 200 17 163 83 320 396 323 645 1 73&#10;-4 100 -22 141 -36 82 -101 105 -171 62z m-55 -409 c-18 -107 -61 -223 -107&#10;-291 -36 -53 -54 -57 -78 -16 -13 25 -13 34 3 95 20 78 76 200 145 316 l47 79&#10;3 -46 c2 -25 -4 -87 -13 -137z" style="fill: rgb(255, 255, 255);"/>
    <path d="M3760 3111 c-133 -42 -294 -138 -335 -199 -45 -67 -26 -128 39 -124&#10;20 2 36 1 36 -1 0 -2 -9 -29 -19 -60 -23 -65 -111 -444 -111 -475 0 -59 92&#10;-69 140 -15 29 33 84 178 168 446 l59 187 54 28 c50 25 56 32 72 82 10 30 25&#10;62 33 71 20 22 17 46 -8 63 -28 20 -59 19 -128 -3z" style="fill: rgb(255, 255, 255);"/>
    <path d="M3269 3012 c-13 -11 -37 -22 -52 -26 -42 -10 -69 -44 -101 -128 -41&#10;-103 -151 -333 -187 -390 -76 -117 -74 -19 2 217 53 163 59 203 31 228 -40 36&#10;-101 8 -136 -62 -30 -59 -99 -255 -128 -365 -28 -106 -30 -257 -5 -303 19 -36&#10;53 -57 110 -67 56 -10 104 3 154 41 40 30 47 33 55 19 11 -20 60 -21 96 -2 51&#10;26 69 57 87 146 23 118 66 287 120 469 47 160 54 208 33 229 -17 17 -52 15&#10;-79 -6z" style="fill: rgb(255, 255, 255);"/>
    <path d="M2495 2836 c-43 -26 -116 -117 -186 -231 -96 -159 -229 -467 -244&#10;-568 -9 -57 11 -87 58 -87 44 0 82 28 123 91 21 32 49 63 64 69 15 6 40 25 56&#10;41 15 16 32 29 37 29 5 0 7 -32 5 -72 -3 -71 -2 -72 24 -82 36 -13 103 8 122&#10;37 12 18 65 295 82 432 3 22 12 78 20 125 18 108 18 135 -1 150 -8 7 -15 24&#10;-15 39 0 15 -5 32 -12 39 -20 20 -90 14 -133 -12z m-51 -417 c-9 -63 -21 -119&#10;-26 -125 -5 -7 -22 -14 -39 -16 -24 -4 -29 -2 -24 11 4 9 22 57 40 106 37 102&#10;57 147 62 142 2 -2 -4 -55 -13 -118z" style="fill: rgb(255, 255, 255);"/>
    <path d="M5865 2636 c-71 -22 -183 -87 -208 -120 -63 -85 -127 -226 -191 -424&#10;-98 -299 -99 -352 -5 -354 80 -1 102 19 133 118 15 47 32 97 37 111 l9 25 18&#10;-23 c10 -13 29 -45 41 -72 26 -53 51 -71 89 -64 14 3 36 0 48 -5 29 -13 70 11&#10;84 48 12 31 -4 65 -73 152 l-50 64 34 26 c64 49 110 107 149 187 82 166 70&#10;307 -28 335 -43 12 -37 12 -87 -4z m-17 -197 c5 -40 -27 -101 -76 -147 -26&#10;-24 -48 -39 -50 -34 -1 5 11 44 27 87 43 110 91 157 99 94z" style="fill: rgb(255, 255, 255);"/>
    <path d="M5350 2524 c-69 -18 -216 -89 -247 -120 -16 -16 -23 -35 -23 -61 0&#10;-21 -17 -76 -36 -123 -74 -176 -115 -326 -129 -477 -6 -65 -4 -74 16 -94 20&#10;-20 28 -21 98 -16 81 7 172 34 226 67 50 31 106 120 75 120 -5 0 -10 8 -10 19&#10;0 33 -22 42 -71 27 -24 -7 -63 -16 -86 -20 -52 -8 -53 -1 -17 82 23 54 30 62&#10;72 77 60 22 99 59 124 114 25 55 15 66 -41 46 -67 -23 -85 -21 -77 13 16 64&#10;59 115 133 155 40 21 81 51 92 65 26 37 40 93 30 120 -10 26 -45 28 -129 6z" style="fill: rgb(255, 255, 255);"/>
    <path d="M4691 2418 c-24 -4 -55 -15 -69 -24 -41 -27 -97 -87 -110 -118 -20&#10;-45 -182 -704 -182 -737 0 -55 76 -64 124 -16 12 12 35 58 51 102 15 44 31 84&#10;35 88 10 12 57 -9 140 -63 95 -61 108 -64 148 -40 39 24 40 40 5 131 -33 84&#10;-82 146 -126 157 l-31 8 49 23 c56 26 162 124 205 190 37 55 42 124 11 141&#10;-44 23 -67 12 -170 -85 -56 -52 -104 -95 -106 -95 -5 0 32 84 80 180 48 98 56&#10;125 42 143 -16 20 -44 25 -96 15z" style="fill: rgb(255, 255, 255);"/>
    <path d="M4227 2290 c-126 -32 -256 -156 -341 -327 -104 -209 -107 -456 -6&#10;-508 51 -26 158 -22 227 10 103 47 183 129 155 157 -7 7 -12 24 -12 39 0 52&#10;-57 56 -126 10 -55 -36 -64 -37 -94 -13 -63 51 28 306 132 370 49 30 58 28 58&#10;-15 0 -56 11 -67 59 -60 94 12 146 87 146 209 0 71 -2 80 -27 104 -21 22 -38&#10;28 -80 30 -29 2 -70 -1 -91 -6z" style="fill: rgb(255, 255, 255);"/>
    <path d="M3633 2161 c-96 -69 -243 -315 -359 -599 -63 -152 -77 -237 -46 -265&#10;46 -42 125 -3 172 86 13 24 35 49 49 55 14 6 46 28 70 49 l44 38 -7 -78 -7&#10;-77 27 -10 c37 -14 101 7 125 40 16 23 57 242 105 568 16 109 16 113 -2 133&#10;-10 12 -18 30 -16 41 9 56 -87 68 -155 19z m-43 -420 c-17 -119 -22 -128 -72&#10;-130 -15 -1 -12 14 22 110 35 97 58 146 65 137 1 -2 -5 -54 -15 -117z" style="fill: rgb(255, 255, 255);"/>
    <path d="M3110 2077 c-82 -30 -105 -42 -157 -83 -117 -95 -345 -738 -280 -792&#10;24 -20 105 -18 135 5 32 24 34 27 68 140 32 106 37 107 84 13 36 -71 51 -84&#10;92 -78 18 3 43 1 55 -5 17 -7 28 -5 52 12 56 40 38 101 -61 209 l-39 43 38 28&#10;c121 88 202 244 203 391 0 72 -25 115 -77 129 -47 13 -36 15 -113 -12z m3&#10;-200 c-1 -20 -11 -54 -22 -75 -19 -38 -87 -99 -98 -89 -10 10 49 152 75 180&#10;33 35 48 30 45 -16z" style="fill: rgb(255, 255, 255);"/>
    <path d="M2700 2004 c-8 -3 -44 -14 -80 -26 -69 -22 -172 -74 -231 -117 -56&#10;-40 -90 -87 -96 -130 -5 -34 -2 -41 21 -56 17 -11 35 -15 52 -11 21 6 25 4 21&#10;-7 -33 -86 -127 -476 -127 -526 0 -37 17 -51 61 -51 59 0 90 34 132 142 34 90&#10;149 445 163 500 4 18 16 30 35 37 55 19 88 50 100 94 6 23 20 54 30 68 22 32&#10;24 52 6 68 -17 13 -66 22 -87 15z" style="fill: rgb(255, 255, 255);"/>
    <path d="M5375 1141 l-40 -7 43 -8 c52 -10 171 2 151 15 -16 10 -93 10 -154 0z" style="fill: rgb(74, 125, 190);"/>
    <path d="M5568 1143 c7 -3 16 -2 19 1 4 3 -2 6 -13 5 -11 0 -14 -3 -6 -6z" style="fill: rgb(74, 125, 190);"/>
    <path d="M5188 1125 c-2 -2 -39 -6 -83 -9 -95 -8 -207 -25 -215 -33 -3 -3 20&#10;-3 50 1 40 4 49 3 35 -4 -17 -8 -15 -9 10 -5 17 2 66 9 110 16 44 6 83 15 87&#10;18 12 11 79 0 72 -11 -7 -12 38 0 46 12 3 4 12 10 20 13 9 3 3 6 -13 6 -16 1&#10;-26 -3 -22 -9 7 -12 4 -12 -52 -1 -23 5 -44 7 -45 6z" style="fill: rgb(74, 125, 190);"/>
    <path d="M5718 1123 c7 -3 16 -2 19 1 4 3 -2 6 -13 5 -11 0 -14 -3 -6 -6z" style="fill: rgb(74, 125, 190);"/>
    <path d="M5528 1093 c6 -2 18 -2 25 0 6 3 1 5 -13 5 -14 0 -19 -2 -12 -5z" style="fill: rgb(74, 125, 190);"/>
    <path d="M5208 1083 c7 -3 16 -2 19 1 4 3 -2 6 -13 5 -11 0 -14 -3 -6 -6z" style="fill: rgb(74, 125, 190);"/>
    <path d="M5158 1073 c6 -2 18 -2 25 0 6 3 1 5 -13 5 -14 0 -19 -2 -12 -5z" style="fill: rgb(74, 125, 190);"/>
    <path d="M5418 1073 c7 -3 16 -2 19 1 4 3 -2 6 -13 5 -11 0 -14 -3 -6 -6z" style="fill: rgb(74, 125, 190);"/>
    <path d="M4908 1063 c6 -2 18 -2 25 0 6 3 1 5 -13 5 -14 0 -19 -2 -12 -5z"/>
    <path d="M4858 1053 c7 -3 16 -2 19 1 4 3 -2 6 -13 5 -11 0 -14 -3 -6 -6z"/>
    <path d="M4798 1043 c6 -2 18 -2 25 0 6 3 1 5 -13 5 -14 0 -19 -2 -12 -5z" style="fill: rgb(74, 125, 190);"/>
    <path d="M4490 1018 c-25 -6 -47 -13 -50 -17 -3 -3 -16 -7 -30 -8 -14 -1 -89&#10;-15 -167 -30 -132 -25 -140 -28 -115 -40 20 -11 32 -11 54 -2 15 6 28 15 28&#10;20 0 5 15 8 33 7 43 -3 237 33 231 43 -2 5 15 13 38 19 24 6 48 13 53 15 21 7&#10;-32 3 -75 -7z" style="fill: rgb(74, 125, 190);"/>
    <path d="M4403 953 c9 -2 23 -2 30 0 6 3 -1 5 -18 5 -16 0 -22 -2 -12 -5z" style="fill: rgb(74, 125, 190);"/>
    <path d="M4728 953 c7 -3 16 -2 19 1 4 3 -2 6 -13 5 -11 0 -14 -3 -6 -6z" style="fill: rgb(74, 125, 190);"/>
    <path d="M4668 943 c6 -2 18 -2 25 0 6 3 1 5 -13 5 -14 0 -19 -2 -12 -5z" style="fill: rgb(74, 125, 190);"/>
    <path d="M4613 933 c9 -2 23 -2 30 0 6 3 -1 5 -18 5 -16 0 -22 -2 -12 -5z" style="fill: rgb(74, 125, 190);"/>
    <path d="M4043 923 c9 -2 23 -2 30 0 6 3 -1 5 -18 5 -16 0 -22 -2 -12 -5z" style="fill: rgb(74, 125, 190);"/>
    <path d="M4568 923 c7 -3 16 -2 19 1 4 3 -2 6 -13 5 -11 0 -14 -3 -6 -6z" style="fill: rgb(74, 125, 190);"/>
    <path d="M3988 913 c6 -2 18 -2 25 0 6 3 1 5 -13 5 -14 0 -19 -2 -12 -5z" style="fill: rgb(74, 125, 190);"/>
    <path d="M5298 913 c7 -3 16 -2 19 1 4 3 -2 6 -13 5 -11 0 -14 -3 -6 -6z" style="fill: rgb(74, 125, 190);"/>
    <path d="M4088 903 c6 -2 18 -2 25 0 6 3 1 5 -13 5 -14 0 -19 -2 -12 -5z" style="fill: rgb(74, 125, 190);"/>
    <path d="M5238 903 c6 -2 18 -2 25 0 6 3 1 5 -13 5 -14 0 -19 -2 -12 -5z" style="fill: rgb(74, 125, 190);"/>
    <path d="M3995 890 c-27 -7 -28 -8 -5 -8 14 0 34 3 45 8 25 11 2 11 -40 0z" style="fill: rgb(74, 125, 190);"/>
    <path d="M5183 893 c9 -2 23 -2 30 0 6 3 -1 5 -18 5 -16 0 -22 -2 -12 -5z" style="fill: rgb(74, 125, 190);"/>
    <path d="M5025 873 c-44 -8 -201 -39 -350 -68 -148 -29 -290 -56 -315 -60&#10;-103 -15 -503 -92 -720 -140 -244 -53 -152 -41 181 24 167 33 392 76 499 96&#10;107 19 238 45 290 56 52 11 160 31 240 45 183 32 324 62 285 62 -16 0 -66 -7&#10;-110 -15z" style="fill: rgb(74, 125, 190);"/>
    <path d="M4120 840 c-18 -12 -2 -12 25 0 13 6 15 9 5 9 -8 0 -22 -4 -30 -9z" style="fill: rgb(74, 125, 190);"/>
    <path d="M3618 793 c6 -2 18 -2 25 0 6 3 1 5 -13 5 -14 0 -19 -2 -12 -5z" style="fill: rgb(74, 125, 190);"/>
    <path d="M3158 703 c6 -2 18 -2 25 0 6 3 1 5 -13 5 -14 0 -19 -2 -12 -5z" style="fill: rgb(74, 125, 190);"/>
    <path d="M3328 683 c7 -3 16 -2 19 1 4 3 -2 6 -13 5 -11 0 -14 -3 -6 -6z" style="fill: rgb(74, 125, 190);"/>
    <path d="M3448 563 c6 -2 18 -2 25 0 6 3 1 5 -13 5 -14 0 -19 -2 -12 -5z" style="fill: rgb(74, 125, 190);"/>
    <path d="M3398 553 c7 -3 16 -2 19 1 4 3 -2 6 -13 5 -11 0 -14 -3 -6 -6z" style="fill: rgb(74, 125, 190);"/>
    <path d="M2338 543 c7 -3 16 -2 19 1 4 3 -2 6 -13 5 -11 0 -14 -3 -6 -6z" style="fill: rgb(74, 125, 190);"/>
    <path d="M3348 543 c7 -3 16 -2 19 1 4 3 -2 6 -13 5 -11 0 -14 -3 -6 -6z" style="fill: rgb(74, 125, 190);"/>
    <path d="M2288 533 c7 -3 16 -2 19 1 4 3 -2 6 -13 5 -11 0 -14 -3 -6 -6z" style="fill: rgb(74, 125, 190);"/>
    <path d="M3150 510 c-74 -15 -127 -28 -118 -29 20 -1 281 48 287 55 9 8 -37 1&#10;-169 -26z" style="fill: rgb(74, 125, 190);"/>
    <path d="M2150 509 c-65 -16 -68 -18 -25 -13 82 8 115 16 115 25 0 11 2 11&#10;-90 -12z" style="fill: rgb(74, 125, 190);"/>
    <path d="M1168 513 c7 -3 16 -2 19 1 4 3 -2 6 -13 5 -11 0 -14 -3 -6 -6z"/>
    <path d="M1118 503 c6 -2 18 -2 25 0 6 3 1 5 -13 5 -14 0 -19 -2 -12 -5z"/>
    <path d="M1078 493 c7 -3 16 -2 19 1 4 3 -2 6 -13 5 -11 0 -14 -3 -6 -6z"/>
    <path d="M1038 483 c7 -3 16 -2 19 1 4 3 -2 6 -13 5 -11 0 -14 -3 -6 -6z"/>
    <path d="M2028 483 c6 -2 18 -2 25 0 6 3 1 5 -13 5 -14 0 -19 -2 -12 -5z" style="fill: rgb(74, 125, 190);"/>
    <path d="M988 473 c7 -3 16 -2 19 1 4 3 -2 6 -13 5 -11 0 -14 -3 -6 -6z"/>
    <path d="M2973 473 c9 -2 23 -2 30 0 6 3 -1 5 -18 5 -16 0 -22 -2 -12 -5z" style="fill: rgb(74, 125, 190);"/>
    <path d="M938 463 c7 -3 16 -2 19 1 4 3 -2 6 -13 5 -11 0 -14 -3 -6 -6z"/>
    <path d="M1208 463 c7 -3 16 -2 19 1 4 3 -2 6 -13 5 -11 0 -14 -3 -6 -6z"/>
    <path d="M2918 463 c6 -2 18 -2 25 0 6 3 1 5 -13 5 -14 0 -19 -2 -12 -5z" style="fill: rgb(74, 125, 190);"/>
    <path d="M2868 453 c6 -2 18 -2 25 0 6 3 1 5 -13 5 -14 0 -19 -2 -12 -5z" style="fill: rgb(74, 125, 190);"/>
    <path d="M2818 443 c6 -2 18 -2 25 0 6 3 1 5 -13 5 -14 0 -19 -2 -12 -5z" style="fill: rgb(74, 125, 190);"/>
    <path d="M2215 430 c-27 -7 -27 -8 -5 -8 14 0 36 4 50 8 20 6 21 8 5 8 -11 0&#10;-33 -4 -50 -8z" style="fill: rgb(74, 125, 190);"/>
    <path d="M2725 430 c-27 -7 -27 -8 -5 -8 14 0 39 4 55 8 27 7 27 8 5 8 -14 0&#10;-38 -4 -55 -8z" style="fill: rgb(74, 125, 190);"/>
    <path d="M1053 413 c9 -2 23 -2 30 0 6 3 -1 5 -18 5 -16 0 -22 -2 -12 -5z"/>
    <path d="M2658 413 c6 -2 18 -2 25 0 6 3 1 5 -13 5 -14 0 -19 -2 -12 -5z" style="fill: rgb(74, 125, 190);"/>
    <path d="M2608 403 c6 -2 18 -2 25 0 6 3 1 5 -13 5 -14 0 -19 -2 -12 -5z" style="fill: rgb(74, 125, 190);"/>
    <path d="M2553 393 c9 -2 23 -2 30 0 6 3 -1 5 -18 5 -16 0 -22 -2 -12 -5z" style="fill: rgb(74, 125, 190);"/>
    <path d="M2498 383 c6 -2 18 -2 25 0 6 3 1 5 -13 5 -14 0 -19 -2 -12 -5z" style="fill: rgb(74, 125, 190);"/>
    <path d="M2405 370 c-16 -7 -17 -9 -3 -9 9 -1 20 4 23 9 7 11 7 11 -20 0z" style="fill: rgb(74, 125, 190);"/>
    <path d="M2448 373 c6 -2 18 -2 25 0 6 3 1 5 -13 5 -14 0 -19 -2 -12 -5z" style="fill: rgb(74, 125, 190);"/>
    <path d="M1698 233 c7 -3 16 -2 19 1 4 3 -2 6 -13 5 -11 0 -14 -3 -6 -6z"/>
    <path d="M838 153 c7 -3 16 -2 19 1 4 3 -2 6 -13 5 -11 0 -14 -3 -6 -6z"/>
  </g>
</svg>